<svg xmlns="http://www.w3.org/2000/svg" width="197" height="193" fill="none"><g stroke="#D1D5DB" opacity=".5"><path d="M30.153 0v24.122m0 10.721v24.123m30.153-28.813H36.184m-12.062 0H0" opacity=".5"/><path d="M30.153 67.007v24.122m0 10.721v24.123M60.306 97.16H36.184m-12.062 0H0"/><path d="M30.153 134.014v24.122m0 10.721v24.123m30.153-28.813H36.184m-12.062 0H0" opacity=".5"/><path d="M98.5 0v24.122m0 10.721v24.123m30.153-28.813h-24.122m-12.062 0H68.347M98.5 67.007v24.122m0 10.721v24.123m30.153-28.813h-24.122m-12.062 0H68.347M98.5 134.014v24.122m0 10.721v24.123m30.153-28.813h-24.122m-12.062 0H68.347"/><path d="M166.847 0v24.122m.001 10.721v24.123M197 30.153h-24.122m-12.062 0h-24.122" opacity=".5"/><path d="M166.847 67.007v24.122m.001 10.721v24.123M197 97.16h-24.122m-12.062 0h-24.122"/><path d="M166.847 134.014v24.122m.001 10.721v24.123M197 164.167h-24.122m-12.062 0h-24.122" opacity=".5"/></g></svg>