<?xml version="1.0" encoding="UTF-8"?>
<svg version="1.1" xmlns="http://www.w3.org/2000/svg" width="1843" height="698">
<path d="M0 0 C3.07161621 1.15018201 5.78304006 2.77988649 8.59130859 4.46289062 C14.89643233 8.1848429 21.30933569 11.52435427 27.90380859 14.71289062 C27.90380859 15.37289063 27.90380859 16.03289062 27.90380859 16.71289062 C30.87380859 17.70289063 33.84380859 18.69289063 36.90380859 19.71289062 C36.90380859 20.37289063 36.90380859 21.03289062 36.90380859 21.71289062 C38.29599609 22.17695313 38.29599609 22.17695313 39.71630859 22.65039062 C41.77880859 23.33789062 43.84130859 24.02539062 45.90380859 24.71289062 C45.90380859 25.37289063 45.90380859 26.03289062 45.90380859 26.71289062 C46.64630859 26.83664062 47.38880859 26.96039063 48.15380859 27.08789062 C50.70522344 27.66775764 52.6305659 28.44997802 54.90380859 29.71289062 C54.90380859 30.37289063 54.90380859 31.03289062 54.90380859 31.71289062 C56.01755859 31.89851563 56.01755859 31.89851563 57.15380859 32.08789062 C59.70522344 32.66775764 61.6305659 33.44997802 63.90380859 34.71289062 C63.90380859 35.37289062 63.90380859 36.03289062 63.90380859 36.71289062 C64.63341797 36.82246094 65.36302734 36.93203125 66.11474609 37.04492188 C69.07145685 37.75304168 70.97450605 38.77298382 73.52880859 40.40039062 C78.87895127 43.72144215 84.36078948 46.72818803 89.90380859 49.71289062 C93.57339392 51.70756149 97.23942777 53.70867637 100.90380859 55.71289062 C102.06203125 56.34517578 102.06203125 56.34517578 103.24365234 56.99023438 C107.0325011 59.07443413 110.76910231 61.21991881 114.46630859 63.46289062 C119.02202175 66.21784157 123.63937864 68.85245897 128.27880859 71.46289062 C128.96918213 71.85186523 129.65955566 72.24083984 130.37084961 72.64160156 C133.51543854 74.4050664 136.65467762 76.14664287 139.90380859 77.71289062 C139.90380859 78.37289062 139.90380859 79.03289062 139.90380859 79.71289062 C140.56380859 79.71289062 141.22380859 79.71289062 141.90380859 79.71289062 C141.97383027 100.6528471 142.02676317 121.59278433 142.05924511 142.53283405 C142.07472662 152.25524619 142.09584061 161.97758567 142.13012695 171.69995117 C142.15999007 180.17207438 142.17937425 188.64414498 142.18607408 197.11631936 C142.18999159 201.6039981 142.1992248 206.0915263 142.22099876 210.57915688 C142.24131521 214.80047256 142.24765226 219.02157525 142.24313164 223.24293518 C142.24395902 224.79457951 142.24995352 226.34623073 142.26142502 227.89783287 C142.27629392 230.01213419 142.27278344 232.12562541 142.26457214 234.23994446 C142.26733752 235.42444844 142.2701029 236.60895243 142.27295208 237.82935047 C141.90380859 240.71289062 141.90380859 240.71289062 140.48917103 242.55543804 C138.80300995 243.78648241 137.1721229 244.70746051 135.27880859 245.58789062 C129.69625845 248.27121583 124.26941044 251.22153294 119.02880859 254.52539062 C116.90380859 255.71289062 116.90380859 255.71289062 113.90380859 255.71289062 C113.90380859 256.37289063 113.90380859 257.03289062 113.90380859 257.71289062 C112.74365234 258.27556641 112.74365234 258.27556641 111.56005859 258.84960938 C106.25944309 261.45399595 101.10885986 264.09642296 96.14990234 267.30273438 C88.19643108 272.29613111 79.87812251 276.74517368 71.62255859 281.21289062 C67.6184141 283.4220738 63.6827098 285.7444358 59.73974609 288.06054688 C56.59865881 289.89068451 53.42414988 291.65115038 50.23974609 293.40429688 C47.48074583 294.94989067 44.75559265 296.54866786 42.02880859 298.15039062 C37.29247126 300.92624402 32.50476829 303.579755 27.67333984 306.18554688 C24.7760325 307.78335671 21.93502513 309.45922675 19.09130859 311.15039062 C14.60838556 313.77225684 10.08278285 316.27379054 5.46630859 318.65039062 C4.33322266 319.23691406 3.20013672 319.8234375 2.03271484 320.42773438 C-1.07491812 321.70415291 -2.80124629 322.21643705 -6.09619141 321.71289062 C-8.20166016 320.57617188 -8.20166016 320.57617188 -10.28369141 319.02539062 C-14.23683572 316.232622 -18.23555772 314.04862757 -22.58837891 311.94726562 C-26.50707013 310.01843942 -30.29876435 307.86843497 -34.09619141 305.71289062 C-34.09619141 305.05289062 -34.09619141 304.39289063 -34.09619141 303.71289062 C-34.83869141 303.58914063 -35.58119141 303.46539063 -36.34619141 303.33789062 C-38.89760625 302.75802361 -40.82294871 301.97580323 -43.09619141 300.71289062 C-43.09619141 300.05289062 -43.09619141 299.39289063 -43.09619141 298.71289062 C-43.65306641 298.60976563 -44.20994141 298.50664063 -44.78369141 298.40039062 C-47.55356238 297.57691547 -49.61853851 296.20374194 -52.09619141 294.71289062 C-54.06748061 293.71796001 -56.0470526 292.73930675 -58.03369141 291.77539062 C-62.2938677 289.66859627 -66.14260201 287.34861689 -70.09619141 284.71289062 C-73.13398534 283.16024039 -76.19686963 281.66354586 -79.26025391 280.16210938 C-82.4135379 278.55072045 -85.1872259 276.72146205 -88.09619141 274.71289062 C-90.08684682 273.69441576 -92.08867326 272.69771085 -94.09619141 271.71289062 C-96.90859075 270.19411311 -99.71011662 268.65648641 -102.51025391 267.11523438 C-104.68642514 265.93510526 -106.87401296 264.80311432 -109.09619141 263.71289062 C-109.09619141 263.05289062 -109.09619141 262.39289063 -109.09619141 261.71289062 C-110.20994141 261.40351562 -111.32369141 261.09414063 -112.47119141 260.77539062 C-116.09619141 259.71289062 -116.09619141 259.71289062 -118.09619141 258.71289062 C-118.09619141 258.05289062 -118.09619141 257.39289063 -118.09619141 256.71289062 C-119.55025391 256.37257813 -119.55025391 256.37257813 -121.03369141 256.02539062 C-124.94767041 254.90711091 -128.24886536 253.11080234 -131.75634766 251.07226562 C-134.80806368 249.29931542 -137.93042128 247.66536342 -141.05322266 246.02148438 C-143.53076375 244.43453166 -145.22533158 243.00457077 -147.09619141 240.71289062 C-147.58838272 237.70630264 -147.58838272 237.70630264 -147.57720947 234.11968994 C-147.58062717 233.45882031 -147.58404487 232.79795068 -147.58756614 232.1170547 C-147.59415134 229.90409161 -147.57216064 227.69234337 -147.55029297 225.47949219 C-147.54916462 223.89271575 -147.54979811 222.30593721 -147.55206299 220.71916199 C-147.55321156 216.41150227 -147.5296793 212.10428727 -147.50176716 207.796731 C-147.47677726 203.29507255 -147.47441341 198.79340412 -147.46966553 194.29168701 C-147.45722865 185.76709847 -147.42439742 177.2427149 -147.38426757 168.71821666 C-147.339572 159.01337981 -147.3175684 149.30853323 -147.29748583 139.6036191 C-147.2556654 119.6399285 -147.18529951 99.67642247 -147.09619141 79.71289062 C-145.61119141 79.21789062 -145.61119141 79.21789062 -144.09619141 78.71289062 C-143.60119141 77.72289062 -143.60119141 77.72289062 -143.09619141 76.71289062 C-137.67311448 73.71289062 -137.67311448 73.71289062 -135.09619141 73.71289062 C-135.09619141 73.05289063 -135.09619141 72.39289063 -135.09619141 71.71289062 C-132.12619141 70.72289062 -129.15619141 69.73289062 -126.09619141 68.71289062 C-126.09619141 68.05289063 -126.09619141 67.39289063 -126.09619141 66.71289062 C-124.98244141 66.17664063 -123.86869141 65.64039063 -122.72119141 65.08789062 C-119.49424199 63.48007723 -116.41691962 61.72604066 -113.34619141 59.83789062 C-109.63628984 57.5719969 -105.87498734 55.56295564 -101.97119141 53.65039062 C-97.86525138 51.63664934 -93.99969514 49.48791396 -90.16650391 47.00195312 C-86.77019049 44.88726742 -83.23537535 43.03054339 -79.70947266 41.14257812 C-77.12831284 39.73046379 -74.61484107 38.23304649 -72.09619141 36.71289062 C-70.78763723 35.97666631 -69.47510703 35.24746415 -68.15869141 34.52539062 C-65.25027476 32.92649716 -62.36771168 31.29253912 -59.50634766 29.61132812 C-58.88171631 29.24676514 -58.25708496 28.88220215 -57.61352539 28.5065918 C-56.36647784 27.77760555 -55.12240509 27.04350285 -53.8815918 26.30395508 C-51.05976329 24.66088004 -49.42107836 23.71289062 -46.09619141 23.71289062 C-46.09619141 23.05289062 -46.09619141 22.39289063 -46.09619141 21.71289062 C-45.29955078 21.32617188 -44.50291016 20.93945312 -43.68212891 20.54101562 C-38.23608368 17.86437052 -33.11613353 15.13072356 -28.09619141 11.71289062 C-25.34473447 10.16467021 -22.5701286 8.66541614 -19.78759766 7.17382812 C-17.52180149 5.94391845 -15.3074465 4.6618268 -13.09619141 3.33789062 C-10.09619141 1.71289062 -10.09619141 1.71289062 -7.09619141 1.71289062 C-7.09619141 1.05289062 -7.09619141 0.39289063 -7.09619141 -0.28710938 C-4.4013089 -1.63455063 -2.77883383 -0.85900369 0 0 Z M-3.09619141 53.71289062 C-5.5005664 54.98312647 -7.79031626 56.28425059 -10.09619141 57.71289062 C-13.689742 59.90408001 -17.31454656 61.86229847 -21.09619141 63.71289062 C-21.87994141 64.10476563 -22.66369141 64.49664062 -23.47119141 64.90039062 C-24.00744141 65.16851562 -24.54369141 65.43664062 -25.09619141 65.71289062 C-25.09619141 66.37289062 -25.09619141 67.03289062 -25.09619141 67.71289062 C-26.41619141 67.71289062 -27.73619141 67.71289062 -29.09619141 67.71289062 C-30.72133608 69.17122421 -30.72133608 69.17122421 -32.09619141 70.71289062 C-32.75619141 70.71289062 -33.41619141 70.71289062 -34.09619141 70.71289062 C-34.09619141 71.37289062 -34.09619141 72.03289062 -34.09619141 72.71289062 C-35.74619141 73.04289062 -37.39619141 73.37289062 -39.09619141 73.71289062 C-39.09619141 74.37289062 -39.09619141 75.03289062 -39.09619141 75.71289062 C-40.41619141 75.71289062 -41.73619141 75.71289062 -43.09619141 75.71289062 C-43.09619141 76.37289062 -43.09619141 77.03289062 -43.09619141 77.71289062 C-44.14806641 77.96039063 -45.19994141 78.20789063 -46.28369141 78.46289062 C-49.9352182 79.48620156 -52.1869254 81.27539748 -55.09619141 83.71289062 C-57.40869141 84.46289062 -57.40869141 84.46289062 -59.09619141 84.71289062 C-59.09619141 85.37289062 -59.09619141 86.03289062 -59.09619141 86.71289062 C-61.40619141 87.37289062 -63.71619141 88.03289062 -66.09619141 88.71289062 C-66.09619141 89.37289062 -66.09619141 90.03289062 -66.09619141 90.71289062 C-67.14806641 90.96039063 -68.19994141 91.20789063 -69.28369141 91.46289062 C-72.9352182 92.48620156 -75.1869254 94.27539748 -78.09619141 96.71289062 C-80.40869141 97.46289062 -80.40869141 97.46289062 -82.09619141 97.71289062 C-82.09619141 98.37289062 -82.09619141 99.03289062 -82.09619141 99.71289062 C-84.40619141 100.37289062 -86.71619141 101.03289062 -89.09619141 101.71289062 C-89.09619141 102.37289062 -89.09619141 103.03289062 -89.09619141 103.71289062 C-90.20994141 104.02226562 -91.32369141 104.33164062 -92.47119141 104.65039062 C-95.8907069 105.53615545 -95.8907069 105.53615545 -98.09619141 106.71289062 C-98.09619141 142.02289063 -98.09619141 177.33289063 -98.09619141 213.71289062 C-94.13619141 215.69289063 -90.17619141 217.67289063 -86.09619141 219.71289062 C-81.72119141 222.40039063 -81.72119141 222.40039063 -79.84619141 223.61132812 C-75.27925062 226.61505681 -75.27925062 226.61505681 -70.09619141 227.71289062 C-69.60119141 228.70289063 -69.60119141 228.70289063 -69.09619141 229.71289062 C-66.28109147 231.99024072 -66.28109147 231.99024072 -63.09619141 231.71289062 C-62.76619141 232.37289062 -62.43619141 233.03289062 -62.09619141 233.71289062 C-61.10619141 234.04289063 -60.11619141 234.37289062 -59.09619141 234.71289062 C-56.09619141 235.71289062 -56.09619141 235.71289062 -55.09619141 237.71289062 C-51.31273509 239.95700708 -51.31273509 239.95700708 -47.09619141 240.71289062 C-46.76619141 241.37289062 -46.43619141 242.03289062 -46.09619141 242.71289062 C-45.10619141 243.04289063 -44.11619141 243.37289062 -43.09619141 243.71289062 C-40.09619141 244.71289062 -40.09619141 244.71289062 -39.09619141 246.71289062 C-36.28109147 248.99024072 -36.28109147 248.99024072 -33.09619141 248.71289062 C-32.76619141 249.37289062 -32.43619141 250.03289062 -32.09619141 250.71289062 C-28.31273509 252.95700708 -28.31273509 252.95700708 -24.09619141 253.71289062 C-23.76619141 254.37289062 -23.43619141 255.03289062 -23.09619141 255.71289062 C-22.31244141 256.02226563 -21.52869141 256.33164062 -20.72119141 256.65039062 C-18.07058081 257.72325682 -17.06477888 258.74430315 -15.09619141 260.71289062 C-14.43619141 260.87789062 -13.77619141 261.04289063 -13.09619141 261.21289062 C-11.09619141 261.71289062 -11.09619141 261.71289062 -9.78369141 263.15039062 C-7.0226834 265.70687952 -4.80633898 266.22631389 -1.09619141 266.71289062 C1.16661282 265.69956653 3.03372368 264.45937306 5.04833984 263.01757812 C7.20880598 261.4984293 9.46167367 260.68974459 11.90380859 259.71289062 C12.92249521 258.73193314 13.92732843 257.73586985 14.90380859 256.71289062 C15.56380859 256.71289062 16.22380859 256.71289062 16.90380859 256.71289062 C16.90380859 256.05289063 16.90380859 255.39289063 16.90380859 254.71289062 C19.87791983 253.47367761 22.75643678 252.41230658 25.90380859 251.71289062 C25.90380859 251.05289063 25.90380859 250.39289063 25.90380859 249.71289062 C28.31435682 248.70849553 30.60046307 247.78030074 33.15380859 247.21289062 C33.73130859 247.04789063 34.30880859 246.88289062 34.90380859 246.71289062 C35.23380859 246.05289063 35.56380859 245.39289063 35.90380859 244.71289062 C37.8284701 243.62990945 39.79410008 242.61894742 41.77880859 241.65039062 C42.84873047 241.12316406 43.91865234 240.5959375 45.02099609 240.05273438 C47.90380859 238.71289062 47.90380859 238.71289062 50.90380859 237.71289062 C50.90380859 237.05289063 50.90380859 236.39289063 50.90380859 235.71289062 C52.60537109 235.27976562 52.60537109 235.27976562 54.34130859 234.83789062 C55.51693359 234.46664062 56.69255859 234.09539062 57.90380859 233.71289062 C58.23380859 233.05289063 58.56380859 232.39289063 58.90380859 231.71289062 C60.8826982 230.98595159 62.88335417 230.31472811 64.90380859 229.71289062 C64.90380859 229.05289063 64.90380859 228.39289063 64.90380859 227.71289062 C67.87791983 226.47367761 70.75643678 225.41230658 73.90380859 224.71289062 C73.90380859 224.05289063 73.90380859 223.39289063 73.90380859 222.71289062 C77.36880859 221.72289062 77.36880859 221.72289062 80.90380859 220.71289062 C80.90380859 220.05289063 80.90380859 219.39289063 80.90380859 218.71289062 C84.36880859 217.72289062 84.36880859 217.72289062 87.90380859 216.71289062 C87.90380859 216.05289063 87.90380859 215.39289063 87.90380859 214.71289062 C89.22380859 214.05289063 90.54380859 213.39289063 91.90380859 212.71289062 C91.95006938 199.05714667 91.98564588 185.40142124 92.00743294 171.74561501 C92.01788755 165.40525172 92.03207728 159.06494189 92.0546875 152.72460938 C92.07635614 146.61031949 92.08836457 140.49608114 92.09356308 134.38175583 C92.09726961 132.04446984 92.10450711 129.70718679 92.11526871 127.36992264 C92.12970415 124.10608995 92.13178988 120.84247255 92.13085938 117.57861328 C92.1416452 116.11665779 92.1416452 116.11665779 92.15264893 114.62516785 C92.14852493 113.29581459 92.14852493 113.29581459 92.14431763 111.93960571 C92.14616121 111.16714319 92.1480048 110.39468067 92.14990425 109.5988102 C92.06695371 107.46959114 92.06695371 107.46959114 89.90380859 105.71289062 C88.48494706 104.86826382 87.04454154 104.0594037 85.59130859 103.27539062 C83.18054027 101.96286121 80.80442944 100.65173422 78.46630859 99.21289062 C76.18638696 97.87830235 73.90594095 96.73547176 71.52880859 95.58789062 C67.04055985 93.37716096 62.7926036 90.88233492 58.52880859 88.27539062 C52.96110632 84.87153983 47.3171651 81.83632139 41.43505859 78.99804688 C39.26694349 77.89726004 37.32554126 76.73366213 35.34130859 75.33789062 C32.97603518 73.43554053 32.97603518 73.43554053 29.90380859 73.71289062 C29.90380859 73.05289063 29.90380859 72.39289063 29.90380859 71.71289062 C25.64008049 69.3537871 25.64008049 69.3537871 20.90380859 68.71289062 C20.90380859 68.05289063 20.90380859 67.39289063 20.90380859 66.71289062 C19.13734289 65.70519542 17.36547036 64.70697348 15.59130859 63.71289062 C14.60517578 63.15601563 13.61904297 62.59914063 12.60302734 62.02539062 C9.95438388 60.4942431 9.95438388 60.4942431 6.90380859 60.71289062 C6.40880859 59.72289062 6.40880859 59.72289062 5.90380859 58.71289062 C3.08870866 56.43554053 3.08870866 56.43554053 -0.09619141 56.71289062 C-0.59119141 55.72289062 -0.59119141 55.72289062 -1.09619141 54.71289062 C-2.08619141 54.21789062 -2.08619141 54.21789062 -3.09619141 53.71289062 Z " fill="#00ACEB" transform="translate(191.09619140625,348.287109375)"/>
<path d="M0 0 C0.99 0 1.98 0 3 0 C3.21477795 22.54145993 3.39804279 45.08312109 3.5625 67.625 C3.56888284 68.49572238 3.57526568 69.36644476 3.58184195 70.26355267 C4.08992556 139.88668174 3.93202022 209.50144414 3.5625 279.125 C3.55290308 280.93947427 3.55290308 280.93947427 3.54311228 282.79060459 C3.37845592 313.86050313 3.19795623 344.93029601 3 376 C-4.40016554 376 -12.02757153 370.13475817 -18 366 C-18.99 365.67 -19.98 365.34 -21 365 C-21 364.34 -21 363.68 -21 363 C-21.928125 362.690625 -22.85625 362.38125 -23.8125 362.0625 C-25.875 361.375 -27.9375 360.6875 -30 360 C-30 359.34 -30 358.68 -30 358 C-30.928125 357.690625 -31.85625 357.38125 -32.8125 357.0625 C-34.875 356.375 -36.9375 355.6875 -39 355 C-39 354.34 -39 353.68 -39 353 C-40.423125 352.690625 -40.423125 352.690625 -41.875 352.375 C-46.13915712 351.15911584 -49.59004834 348.97299559 -53.33203125 346.640625 C-57.78284539 343.90366755 -62.39999557 341.47493196 -67 339 C-77.36998439 333.40204382 -87.65037821 327.66067588 -97.71826172 321.53491211 C-103.82562065 317.81966726 -109.95835169 314.38129373 -116.4140625 311.2890625 C-120.30603429 309.34895572 -123.93407808 307.04291524 -127.59375 304.703125 C-128.89566747 303.88515261 -130.1977541 303.06744941 -131.5 302.25 C-132.15097656 301.82589844 -132.80195313 301.40179688 -133.47265625 300.96484375 C-137.25395611 298.59765419 -137.25395611 298.59765419 -141.5859375 298.00390625 C-144.66662711 299.27506458 -147.32326347 300.88048319 -150.125 302.6875 C-151.28114112 303.42149802 -152.43871648 304.1532414 -153.59765625 304.8828125 C-154.45834717 305.42470215 -154.45834717 305.42470215 -155.33642578 305.97753906 C-158.55545556 307.95600938 -161.89658749 309.70610987 -165.2265625 311.48828125 C-169.33068091 313.7253148 -173.34782654 316.10577228 -177.37109375 318.484375 C-183.46907216 322 -183.46907216 322 -187 322 C-187 322.66 -187 323.32 -187 324 C-189.41054823 325.0043951 -191.69665448 325.93258988 -194.25 326.5 C-194.8275 326.665 -195.405 326.83 -196 327 C-196.33 327.66 -196.66 328.32 -197 329 C-199.93704456 331.0095568 -201.39222485 332 -205 332 C-205.33 332.66 -205.66 333.32 -206 334 C-211.42307692 337 -211.42307692 337 -214 337 C-214 337.66 -214 338.32 -214 339 C-214.85980469 339.4125 -215.71960938 339.825 -216.60546875 340.25 C-223.95524047 343.84072817 -230.90518607 347.71552849 -237.83203125 352.0859375 C-241.87888733 354.53101701 -246.06749221 356.58199556 -250.31640625 358.6484375 C-253.21800668 360.10979667 -255.8973827 361.76070174 -258.62109375 363.5234375 C-266.495989 368.41130352 -274.7239328 372.78151773 -282.875 377.1875 C-286.30378612 379.04518561 -289.66579317 380.97752658 -293 383 C-307.85714286 392 -307.85714286 392 -311 392 C-311.06949924 384.75038346 -311.12281062 377.5008387 -311.15543652 370.25095654 C-311.17109511 366.88455123 -311.19233621 363.51837377 -311.22631836 360.15209961 C-311.26261749 356.28232751 -311.2797075 352.41287974 -311.29296875 348.54296875 C-311.31619453 346.72879707 -311.31619453 346.72879707 -311.33988953 344.87797546 C-311.34011612 343.75703995 -311.34034271 342.63610443 -311.34057617 341.48120117 C-311.35056892 339.99894295 -311.35056892 339.99894295 -311.36076355 338.48674011 C-310.93809822 335.57331155 -310.30220662 334.76277383 -308 333 C-306.3402995 332.01412133 -304.6485953 331.08120877 -302.9375 330.1875 C-299.26885597 328.23537749 -295.66934965 326.23203645 -292.125 324.0625 C-287.33036163 321.15092938 -282.41460134 318.50870166 -277.4609375 315.87890625 C-275.0022265 314.54409813 -272.57838111 313.18762205 -270.1640625 311.77734375 C-269.21515137 311.22409424 -269.21515137 311.22409424 -268.24707031 310.65966797 C-267.0218027 309.94157295 -265.7996475 309.21813414 -264.58105469 308.48876953 C-261.81269028 306.8684007 -260.27009263 306 -257 306 C-256.67 305.34 -256.34 304.68 -256 304 C-253.06295544 301.9904432 -251.60777515 301 -248 301 C-247.67 300.34 -247.34 299.68 -247 299 C-245.29296875 297.78125 -245.29296875 297.78125 -243.1875 296.5 C-242.50042969 296.0771875 -241.81335938 295.654375 -241.10546875 295.21875 C-237.38588369 293.06566922 -234.26553483 291.71092247 -230 291 C-230 290.34 -230 289.68 -230 289 C-229.195625 288.87625 -228.39125 288.7525 -227.5625 288.625 C-226.716875 288.41875 -225.87125 288.2125 -225 288 C-224.67 287.34 -224.34 286.68 -224 286 C-218.57692308 283 -218.57692308 283 -216 283 C-215.67 282.34 -215.34 281.68 -215 281 C-208.28710354 276.5779222 -201.08555144 273.00160344 -193.87890625 269.46875 C-190.27005286 267.6275982 -186.83351699 265.56455545 -183.3828125 263.4453125 C-180.29038413 261.56957726 -177.13074752 259.83045872 -173.9609375 258.08984375 C-172.39251046 257.21814825 -170.84801237 256.30344934 -169.3125 255.375 C-167 254 -167 254 -164.1875 252.625 C-160.90121181 250.94963739 -157.89477828 249.03615352 -154.83203125 246.98828125 C-153 246 -153 246 -150 246 C-150 245.34 -150 244.68 -150 244 C-146.78813136 241.86094814 -143.71317227 240.10059495 -140 239 C-136.78401946 239.89095476 -134.59438662 241.96086956 -132 244 C-130.24806268 245.01258762 -128.47561273 245.99025615 -126.6875 246.9375 C-125.7490625 247.44410156 -124.810625 247.95070313 -123.84375 248.47265625 C-122.9053125 248.97667969 -121.966875 249.48070312 -121 250 C-113.20571799 254.20661985 -105.49517988 258.54709573 -97.81591797 262.95898438 C-95.99538481 264.00264576 -94.1720349 265.04120227 -92.34765625 266.078125 C-91.14836434 266.76028807 -89.94914485 267.44257846 -88.75 268.125 C-88.16387939 268.45854492 -87.57775879 268.79208984 -86.97387695 269.13574219 C-83.57286389 271.07863023 -80.21356959 273.07705955 -76.875 275.125 C-72.32675796 277.885364 -67.61147103 280.21212023 -62.8359375 282.55078125 C-59.66833482 284.1694873 -56.68839949 285.96815823 -53.71875 287.921875 C-51.86728787 289.0832467 -49.95939229 290.03445839 -48 291 C-47.8132311 263.70589179 -47.67209979 236.41187914 -47.58550262 209.11726093 C-47.54422767 196.44424916 -47.48794229 183.77163411 -47.39648438 171.09887695 C-47.31682008 160.05503635 -47.26515159 149.011483 -47.24729204 137.96736306 C-47.23684985 132.11781175 -47.21226066 126.26908231 -47.15415955 120.41979408 C-47.09993386 114.91616989 -47.08309208 109.41370749 -47.09513855 103.90984154 C-47.09293423 101.88811813 -47.07697444 99.86635664 -47.0463562 97.84486389 C-47.00661796 95.08637019 -47.01608445 92.33227746 -47.03796387 89.57368469 C-47.00300977 88.36988229 -47.00300977 88.36988229 -46.96734953 87.14176065 C-47.01692918 84.83382203 -47.14055653 83.14573278 -48 81 C-50.4309199 78.79754158 -53.05292474 77.40354261 -56 76 C-56.92425781 75.47535156 -57.84851563 74.95070313 -58.80078125 74.41015625 C-59.62964844 73.96542969 -60.45851563 73.52070312 -61.3125 73.0625 C-62.24320313 72.55976562 -63.17390625 72.05703125 -64.1328125 71.5390625 C-65.07898438 71.03117187 -66.02515625 70.52328125 -67 70 C-72.82114062 66.87530054 -78.57059415 63.72404217 -84.140625 60.16796875 C-87.03938928 58.34710631 -90.01674529 56.67808078 -93 55 C-91.76446186 51.29338557 -91.0187457 51.21253629 -87.625 49.5 C-82.1995355 46.66717283 -76.90837285 43.65209386 -71.625 40.5625 C-65.14089837 36.78481152 -58.61589577 33.13731821 -51.98828125 29.6171875 C-47.85605956 27.38092635 -43.8136813 25.00151386 -39.765625 22.6171875 C-36.64629662 20.79317345 -33.49100927 19.04443238 -30.32421875 17.3046875 C-27.62582723 15.78996016 -24.9724528 14.20621368 -22.3125 12.625 C-4.16826923 2 -4.16826923 2 0 2 C0 1.34 0 0.68 0 0 Z " fill="#00ABEB" transform="translate(329,22)"/>
<path d="M0 0 C18.15 0 36.3 0 55 0 C55 32.34 55 64.68 55 98 C87.67 98 120.34 98 154 98 C154 65.66 154 33.32 154 0 C172.15 0 190.3 0 209 0 C209 85.14 209 170.28 209 258 C190.85 258 172.7 258 154 258 C154 220.05 154 182.1 154 143 C121.33 143 88.66 143 55 143 C55 180.95 55 218.9 55 258 C36.85 258 18.7 258 0 258 C0 172.86 0 87.72 0 0 Z " fill="#FFFFFF" transform="translate(1013,136)"/>
<path d="M0 0 C149.85423197 0 149.85423197 0 181 31 C206.74859866 58.21654651 213.99156591 95.689831 213.28125 132.03515625 C212.45193348 157.05632684 207.57428882 181.66561372 196 204 C195.65598145 204.66467285 195.31196289 205.3293457 194.95751953 206.01416016 C189.66240479 215.99464914 183.03677139 224.10039398 175 232 C174.23816406 232.76054687 173.47632813 233.52109375 172.69140625 234.3046875 C129.06046128 275.4538723 46.55164635 258 0 258 C0 172.86 0 87.72 0 0 Z M35 31 C35 96.01 35 161.02 35 228 C95.07562837 233.22678943 95.07562837 233.22678943 149.04736328 210.12768555 C161.82025336 197.219855 169.00476459 181.57981007 173 164 C173.16371094 163.27989746 173.32742188 162.55979492 173.49609375 161.81787109 C180.42170325 129.40058116 178.0624457 90.97061093 161 62 C154.30596313 52.08445788 145.99441025 44.19184241 135.375 38.6875 C134.78525391 38.37409668 134.19550781 38.06069336 133.58789062 37.73779297 C104.40046964 23.53132453 62.12023878 31 35 31 Z " fill="#FFFFFF" transform="translate(391,136)"/>
<path d="M0 0 C16.83 0 33.66 0 51 0 C51.01458252 3.65271973 51.02916504 7.30543945 51.04418945 11.06884766 C51.0946605 23.17473833 51.16113012 35.2804924 51.23571491 47.38625526 C51.28052275 54.72168152 51.3199712 62.05706085 51.34643555 69.39257812 C51.36953811 75.79237794 51.40307058 82.19202736 51.44870156 88.59170759 C51.47247017 91.97472065 51.49130524 95.35758629 51.49761391 98.74068069 C50.4690306 122.09466805 50.4690306 122.09466805 59 143 C59 143.66 59 144.32 59 145 C59.5775 145.28746094 60.155 145.57492187 60.75 145.87109375 C62.17092503 146.58402315 63.58815251 147.30441488 65 148.03515625 C65.99 148.54369141 65.99 148.54369141 67 149.0625 C67.66 149.40410156 68.32 149.74570312 69 150.09765625 C77.06798935 153.73770613 88.64745139 153.18519317 96.9375 150.4375 C105.25787671 146.90384604 112.70149755 141.12981141 116.44921875 132.765625 C117.06216797 131.02539062 117.06216797 131.02539062 117.6875 129.25 C118.10386719 128.10015625 118.52023437 126.9503125 118.94921875 125.765625 C121.16009153 117.84264595 121.15936272 109.78445497 121.20532227 101.60522461 C121.21522186 100.5017569 121.22512146 99.39828918 121.23532104 98.26138306 C121.26671615 94.64172454 121.2916059 91.02205294 121.31640625 87.40234375 C121.3369948 84.88171563 121.35799175 82.36109082 121.37937927 79.84046936 C121.42879036 73.90153439 121.47410588 67.96257726 121.51740164 62.02359539 C121.58054475 53.4025113 121.65205354 44.7814958 121.72252655 36.16046906 C121.82028884 24.10701298 121.90931399 12.05352075 122 0 C138.83 0 155.66 0 173 0 C173 63.03 173 126.06 173 191 C156.83 191 140.66 191 124 191 C123.505 178.625 123.505 178.625 123 166 C121.865625 167.65 120.73125 169.3 119.5625 171 C115.57749297 176.46796379 111.33307875 180.85310425 106 185 C105.39929687 185.47050781 104.79859375 185.94101562 104.1796875 186.42578125 C89.23933128 196.87109523 68.07757389 197.93317528 50.53222656 195.68359375 C36.32409351 193.13516065 23.0204874 186.78118067 13.8125 175.375 C2.75457671 159.35357705 -0.16842553 142.63817491 -0.11352539 123.515625 C-0.11324289 122.16470848 -0.11340248 120.8137918 -0.1139679 119.46287537 C-0.11425342 115.81675754 -0.10839645 112.17067297 -0.10139394 108.52456284 C-0.09511945 104.70623699 -0.09455337 100.88791028 -0.09336853 97.06958008 C-0.09026725 89.84852346 -0.08207015 82.62748208 -0.07201904 75.40643215 C-0.06082045 67.18149592 -0.05533803 58.95655894 -0.05032361 50.73161697 C-0.03988648 33.82106767 -0.02155603 16.91053934 0 0 Z " fill="#FFFFFF" transform="translate(1270,203)"/>
<path d="M0 0 C0.61746094 0.556875 1.23492188 1.11375 1.87109375 1.6875 C2.75087891 2.43 2.75087891 2.43 3.6484375 3.1875 C23.53958793 21.2293598 30.46188934 52.04839286 31.87109375 77.6875 C31.87109375 82.9675 31.87109375 88.2475 31.87109375 93.6875 C-13.33890625 93.6875 -58.54890625 93.6875 -105.12890625 93.6875 C-102.42633133 114.91533165 -102.42633133 114.91533165 -94.27734375 133.75 C-93.12890625 135.6875 -93.12890625 135.6875 -92.09375 137.875 C-90.82650482 140.25557394 -89.55768781 140.57719986 -87.12890625 141.6875 C-86.01515625 142.615625 -86.01515625 142.615625 -84.87890625 143.5625 C-72.87885426 152.83526745 -57.53466689 154.77825803 -42.81640625 153 C-29.33806457 150.7285384 -18.65724454 143.5766603 -10.06640625 133.0625 C-6.34161905 127.89332029 -6.34161905 127.89332029 -3.12890625 117.6875 C7.43109375 117.6875 17.99109375 117.6875 28.87109375 117.6875 C26.60270341 135.83462272 17.00818978 152.85670997 3.2734375 164.98046875 C-11.16542674 175.97441987 -27.97946148 182.05529873 -46.12890625 182.6875 C-47.37800781 182.7390625 -48.62710938 182.790625 -49.9140625 182.84375 C-73.89863746 183.51921458 -94.60358512 177.24905283 -112.75390625 161.39453125 C-129.1101342 145.78427992 -138.29225162 122.5363148 -139.29003906 100.05737305 C-139.67411358 64.76941059 -139.67411358 64.76941059 -136.12890625 51.6875 C-135.93022949 50.95225098 -135.73155273 50.21700195 -135.52685547 49.45947266 C-129.16475781 26.86568614 -117.18191327 6.61628425 -96.44140625 -5.5625 C-67.39843147 -21.8152886 -26.09558139 -22.09984965 0 0 Z M-90.9921875 30.0390625 C-100.22694273 41.48543187 -103.79459076 53.01002959 -105.12890625 67.6875 C-71.13890625 67.6875 -37.14890625 67.6875 -2.12890625 67.6875 C-2.12890625 61.89659514 -2.34449914 57.38644103 -3.75390625 51.9375 C-3.93211914 51.24648193 -4.11033203 50.55546387 -4.29394531 49.84350586 C-7.69228497 37.40161511 -13.79726902 26.57764185 -24.75390625 19.375 C-47.43655805 6.9617805 -73.24221927 11.36494871 -90.9921875 30.0390625 Z " fill="#FFFFFF" transform="translate(774.12890625,217.3125)"/>
<path d="M0 0 C16.83 0 33.66 0 51 0 C51 17.16 51 34.32 51 52 C61.23 52 71.46 52 82 52 C82 64.21 82 76.42 82 89 C71.77 89 61.54 89 51 89 C51.06288136 103.25600232 51.13826007 117.51178752 51.23571491 131.76759624 C51.28046468 138.38696262 51.31971084 145.00626678 51.34643555 151.62573242 C51.37242226 158.01248142 51.41279227 164.39899161 51.46318626 170.78559303 C51.47988626 173.22363124 51.49138097 175.66171077 51.49761391 178.0997982 C51.50722066 181.51169312 51.53524007 184.92297273 51.56762695 188.3347168 C51.56619186 189.34532166 51.56475677 190.35592651 51.5632782 191.39715576 C51.64245609 198.19322278 51.64245609 198.19322278 55 204 C62.50712208 207.69126127 74.96796992 206 82 206 C82 218.87 82 231.74 82 245 C22.97340745 247.5011268 22.97340745 247.5011268 8 234 C0.26806538 225.160728 -0.44675115 213.39356143 -0.34057617 202.18481445 C-0.34123329 200.33898018 -0.34123329 200.33898018 -0.34190369 198.45585632 C-0.34018526 195.1175465 -0.32525474 191.77980963 -0.30418181 188.44160104 C-0.28528771 184.9396158 -0.28365463 181.437621 -0.28010559 177.93559265 C-0.27082219 171.32018406 -0.24625928 164.70492615 -0.21605712 158.08958358 C-0.18239692 150.55140378 -0.16599805 143.01321637 -0.15097082 135.47498 C-0.11970584 119.98321816 -0.06474088 104.49166361 0 89 C-8.58 89 -17.16 89 -26 89 C-26 76.79 -26 64.58 -26 52 C-17.42 52 -8.84 52 0 52 C0 34.84 0 17.68 0 0 Z " fill="#FFFFFF" transform="translate(1495,151)"/>
<path d="M0 0 C13.86 0 27.72 0 42 0 C46.59528189 17.2323071 46.59528189 17.2323071 48.29003906 24.68920898 C48.48569458 25.53996002 48.6813501 26.39071106 48.88293457 27.26724243 C49.51299132 30.00962789 50.13935924 32.75284034 50.765625 35.49609375 C51.20808198 37.42526967 51.65077422 39.35439165 52.09368896 41.28346252 C53.24676115 46.3083965 54.3966817 51.33404636 55.54589844 56.35986328 C56.72397117 61.50923392 57.90509075 66.65790555 59.0859375 71.80664062 C61.39357093 81.87042028 63.69786822 91.93496051 66 102 C69.18566536 90.49390518 71.90456384 78.91438143 74.51171875 67.265625 C74.92928979 65.4108819 75.34716767 63.55620785 75.76533508 61.70159912 C76.8540575 56.87018518 77.93955096 52.03805246 79.02404785 47.20568848 C80.76920336 39.43099658 82.51828222 31.65718919 84.26941872 23.88384247 C84.87853949 21.17697279 85.48559737 18.46964634 86.092453 15.76226807 C86.46350044 14.11265476 86.83461586 12.46305674 87.20581055 10.81347656 C87.37359512 10.06236603 87.5413797 9.31125549 87.71424866 8.53738403 C88.3684177 5.6371654 89.05903933 2.82288202 90 0 C103.86 0 117.72 0 132 0 C132 44.88 132 89.76 132 136 C123.09 136 114.18 136 105 136 C104.67 101.35 104.34 66.7 104 31 C102.35128906 38.41210938 100.70257813 45.82421875 99.00390625 53.4609375 C97.9605763 58.14589831 96.91709188 62.83082363 95.87304688 67.515625 C94.21454382 74.95767036 92.55662592 82.39984281 90.90209961 89.84277344 C89.56871704 95.8408617 88.23278814 101.83837753 86.8950634 107.83549881 C86.38419077 110.12791204 85.87424868 112.42053284 85.36523628 114.71335983 C84.65421004 117.91541193 83.93993073 121.11672161 83.22485352 124.31787109 C83.01338181 125.27380661 82.8019101 126.22974213 82.58403015 127.21464539 C82.38912994 128.08405258 82.19422974 128.95345978 81.99342346 129.84921265 C81.82473535 130.60692648 81.65604723 131.36464031 81.48224735 132.14531517 C81 134 81 134 80 136 C70.43 136 60.86 136 51 136 C45.58326223 113.09453071 40.50795412 90.13631113 35.5625 67.125 C31.8190625 49.738125 31.8190625 49.738125 28 32 C27.67 66.32 27.34 100.64 27 136 C18.09 136 9.18 136 0 136 C0 91.12 0 46.24 0 0 Z " fill="#FFFFFF" transform="translate(390,450)"/>
<path d="M0 0 C12.21 0 24.42 0 37 0 C45.05097162 23.82205302 52.79435664 47.73252129 60.4375 71.6875 C60.68788906 72.47209217 60.93827812 73.25668434 61.19625473 74.06505203 C66.26481933 89.94827836 71.32306615 105.83470428 76.33984375 121.734375 C76.65281906 122.72544754 76.96579437 123.71652008 77.28825378 124.73762512 C78.68287009 129.15467564 80.07435579 133.57265156 81.45874023 137.99291992 C81.9281345 139.48358896 82.39761051 140.97423226 82.8671875 142.46484375 C83.45669189 144.34610962 83.45669189 144.34610962 84.05810547 146.26538086 C84.73589931 148.88199465 84.73589931 148.88199465 86 150 C86.20028305 149.41976578 86.4005661 148.83953156 86.60691833 148.24171448 C101.82392458 104.15873077 117.0670453 60.08500098 132.44433594 16.05761719 C132.74502991 15.19653351 133.04572388 14.33544983 133.35552979 13.44827271 C133.91469261 11.84718825 134.47404722 10.24617075 135.03363037 8.64523315 C136.03838243 5.7684447 137.03637462 2.89087615 138 0 C149.88 0 161.76 0 174 0 C172.03318733 6.55604223 170.01468456 12.86863543 167.54296875 19.21875 C167.207883 20.08909378 166.87279724 20.95943756 166.52755737 21.8561554 C165.80004527 23.74492258 165.07092662 25.6330716 164.34036255 27.5206604 C162.31524195 32.75417415 160.30307702 37.99267336 158.2890625 43.23046875 C157.86152176 44.34145432 157.43398102 45.45243988 156.9934845 46.59709167 C151.97284734 59.65233082 147.01770049 72.73231783 142.0625 85.8125 C141.13351964 88.263449 140.20448313 90.71437671 139.27539062 93.1652832 C137.4265339 98.04272116 135.5779081 102.92024653 133.72949219 107.79785156 C129.7863099 118.20277844 125.84218791 128.60734587 121.89328003 139.01010132 C121.10842305 141.078309 120.32399703 143.14668029 119.54006958 145.21524048 C114.12085775 159.51463715 108.59068434 173.76665853 103 188 C91.45 188 79.9 188 68 188 C62.37521338 174.50051212 62.37521338 174.50051212 60.68603516 169.85424805 C60.29927612 168.79473434 59.91251709 167.73522064 59.51403809 166.64360046 C59.10979614 165.5275795 58.7055542 164.41155853 58.2890625 163.26171875 C57.84824341 162.0518782 57.40742432 160.84203766 56.95324707 159.59553528 C55.75687602 156.31205195 54.56382504 153.0273715 53.37137604 149.74246216 C52.1036324 146.25204303 50.83271883 142.76277861 49.56201172 139.2734375 C47.97439855 134.91334467 46.38705777 130.55315361 44.80105591 126.19247437 C41.19864475 116.28801443 37.58733483 106.38684312 33.96875 96.48828125 C32.98753832 93.80412168 32.00632887 91.1199613 31.02514648 88.43579102 C30.78465041 87.77788417 30.54415434 87.11997732 30.29637051 86.4421339 C27.21302816 78.00628429 24.13545925 69.56832847 21.05885315 61.13002014 C18.8221844 54.99550325 16.58440938 48.86139782 14.34326172 42.72851562 C12.28877443 37.10568796 10.238998 31.48116636 8.1930542 25.85522461 C7.44623943 23.8039938 6.69777572 21.75336249 5.9475708 19.70336914 C4.93062923 16.92364025 3.91960931 14.14183036 2.91015625 11.359375 C2.61141098 10.54704407 2.31266571 9.73471313 2.00486755 8.89776611 C0.88985214 5.80820702 0 3.31148221 0 0 Z " fill="#FFFFFF" transform="translate(812,206)"/>
<path d="M0 0 C17.6653125 -0.12375 17.6653125 -0.12375 35.6875 -0.25 C39.38026123 -0.28641602 43.07302246 -0.32283203 46.87768555 -0.36035156 C51.45275879 -0.37841797 51.45275879 -0.37841797 53.60725403 -0.3817749 C55.08423206 -0.38784202 56.56119266 -0.40175046 58.03804016 -0.42230225 C73.93926478 -0.63215809 87.22078941 2.38050349 99.4375 13.1484375 C111.72142727 25.63986354 116.17496334 42.90627162 117 60 C117.04125 60.76183594 117.0825 61.52367187 117.125 62.30859375 C117.67709327 82.77055062 113.18581321 104.64079124 99.6875 120.5625 C89.99689303 130.43563553 77.94420921 136.25945247 64.02832031 136.45410156 C61.04409075 136.46714772 58.06201269 136.43260374 55.078125 136.390625 C53.66065096 136.38472649 52.24316814 136.38065651 50.82568359 136.37841797 C45.63365415 136.35764761 40.44181255 136.30180352 35.25 136.25 C23.6175 136.1675 11.985 136.085 0 136 C0 91.12 0 46.24 0 0 Z M29 24 C29 53.04 29 82.08 29 112 C53.7047539 114.350943 53.7047539 114.350943 75.265625 105.12890625 C86.15894406 91.75760245 88.0655276 74.21254227 86.7265625 57.609375 C85.6019381 47.97579999 83.46779521 38.44653847 76.875 31 C62.37378622 19.77325385 47.44089674 24 29 24 Z " fill="#FFFFFF" transform="translate(977,450)"/>
<path d="M0 0 C33.33 0 66.66 0 101 0 C101 8.25 101 16.5 101 25 C77.24 25 53.48 25 29 25 C29 33.91 29 42.82 29 52 C50.78 52 72.56 52 95 52 C95 60.25 95 68.5 95 77 C73.22 77 51.44 77 29 77 C29 88.22 29 99.44 29 111 C53.75 111 78.5 111 104 111 C104 119.25 104 127.5 104 136 C69.68 136 35.36 136 0 136 C0 91.12 0 46.24 0 0 Z " fill="#FFFFFF" transform="translate(700,450)"/>
<path d="M0 0 C11.22 0 22.44 0 34 0 C38.49945097 11.24862743 38.49945097 11.24862743 40.02026367 15.60595703 C40.53905594 17.08683304 40.53905594 17.08683304 41.06832886 18.59762573 C41.43121002 19.64048737 41.79409119 20.683349 42.16796875 21.7578125 C42.75652145 23.43993332 42.75652145 23.43993332 43.35696411 25.15603638 C44.6357318 28.81168868 45.91158873 32.46834988 47.1875 36.125 C48.75749385 40.61734476 50.3295861 45.10895563 51.90188408 49.60049438 C52.35892107 50.90615052 52.81587695 52.21183506 53.27275276 53.51754761 C56.44542267 62.58401507 59.63718468 71.64353271 62.8515625 80.6953125 C63.23240494 81.76802399 63.61324738 82.84073547 64.00563049 83.94595337 C65.78559453 88.95735982 67.56836807 93.96774978 69.35424805 98.97705078 C73.7277329 111.26837948 77.90768968 123.61189374 82 136 C71.44 136 60.88 136 50 136 C46.66895055 127.11720148 43.85678299 118.04647948 41 109 C16.745 108.505 16.745 108.505 -8 108 C-8.99 111.63 -9.98 115.26 -11 119 C-12.03229396 122.0818119 -13.07903544 125.13508408 -14.1875 128.1875 C-15.115625 130.765625 -16.04375 133.34375 -17 136 C-27.23 136 -37.46 136 -48 136 C-44.62530018 123.62610065 -44.62530018 123.62610065 -43.17260742 119.59448242 C-42.84262756 118.67201721 -42.51264771 117.749552 -42.17266846 116.7991333 C-41.82049255 115.827724 -41.46831665 114.8563147 -41.10546875 113.85546875 C-40.72517517 112.79535583 -40.34488159 111.73524292 -39.95306396 110.64300537 C-38.70160385 107.15648473 -37.44452664 103.67201712 -36.1875 100.1875 C-34.62165364 95.83071658 -33.05785275 91.47320019 -31.49440193 87.11555672 C-30.79069695 85.15465966 -30.08645977 83.19395426 -29.38218689 81.23326111 C-25.8588931 71.41991761 -22.36809962 61.59528902 -18.890625 51.765625 C-18.38598038 50.33974381 -17.8813265 48.91386591 -17.37666321 47.48799133 C-15.41218926 41.93663883 -13.44815048 36.38513525 -11.4883728 30.8321228 C-10.56217703 28.2078176 -9.63482877 25.58392568 -8.70611572 22.96051025 C-7.86329721 20.57954105 -7.0222331 18.19794977 -6.18328857 15.81561279 C-5.80690247 14.75360657 -5.43051636 13.69160034 -5.04272461 12.59741211 C-4.7188829 11.68044052 -4.3950412 10.76346893 -4.06138611 9.81871033 C-2.81325777 6.50407091 -1.3952007 3.2554683 0 0 Z M16 33 C13.71723689 39.94038432 11.43904087 46.88225538 9.1640625 53.82519531 C8.38908095 56.18849894 7.61304203 58.5514561 6.8359375 60.9140625 C5.72119544 64.30378835 4.61022213 67.69472899 3.5 71.0859375 C2.9750293 72.67817642 2.9750293 72.67817642 2.43945312 74.30258179 C2.11912109 75.28344757 1.79878906 76.26431335 1.46875 77.27490234 C1.18451172 78.14094086 0.90027344 79.00697937 0.60742188 79.89926147 C-0.09258945 81.95575053 -0.09258945 81.95575053 0 84 C10.89 84 21.78 84 33 84 C30.39959397 74.46517789 27.64388258 65.01023645 24.7565918 55.5625 C24.20538462 53.75394901 23.65759331 51.94435378 23.11303711 50.13378906 C22.32105424 47.50093644 21.51915081 44.87129751 20.71484375 42.2421875 C20.47209213 41.42877899 20.22934052 40.61537048 19.97923279 39.77731323 C19.37792372 37.83250369 18.69631801 35.91285074 18 34 C17.34 33.67 16.68 33.34 16 33 Z " fill="#FFFFFF" transform="translate(1507,450)"/>
<path d="M0 0 C9.57 0 19.14 0 29 0 C29 44.88 29 89.76 29 136 C19.43 136 9.86 136 0 136 C0 91.12 0 46.24 0 0 Z " fill="#FFFFFF" transform="translate(1263,450)"/>
<path d="M0 0 C14.52 0 29.04 0 44 0 C44 7.26 44 14.52 44 22 C43.34 22 42.68 22 42 22 C42 22.66 42 23.32 42 24 C33.92101436 28.56153518 25.84305423 33.11661477 17.671875 37.51171875 C13.55012062 39.80760825 9.54124883 42.29219974 5.53125 44.77734375 C3 46 3 46 0 45 C0 30.15 0 15.3 0 0 Z " fill="#00ABEB" transform="translate(193,518)"/>
<path d="M0 0 C2.42578125 1.109375 2.42578125 1.109375 5.3125 2.75 C6.25738281 3.28109375 7.20226562 3.8121875 8.17578125 4.359375 C11.6240291 6.36250653 15.04128278 8.41002017 18.4375 10.5 C20.98551663 12.03465288 20.98551663 12.03465288 23.6875 13.3125 C27.45475824 15.23166929 31.02832252 17.39116939 34.6328125 19.59765625 C36.94087489 21.01485209 36.94087489 21.01485209 39.2421875 22.05859375 C41 23 41 23 42 25 C42 31.93 42 38.86 42 46 C27.48 46 12.96 46 -2 46 C-2 31.15 -2 16.3 -2 1 C-1.34 0.67 -0.68 0.34 0 0 Z " fill="#00ABEB" transform="translate(195,461)"/>
<path d="M0 0 C0.76166977 0.00222061 1.52333954 0.00444122 2.30809021 0.00672913 C3.18098694 0.00684998 4.05388367 0.00697083 4.95323181 0.00709534 C6.33822876 0.01476929 6.33822876 0.01476929 7.75120544 0.02259827 C8.5955011 0.02360535 9.43979675 0.02461243 10.30967712 0.02565002 C13.47639821 0.03089881 16.64310001 0.04485995 19.80979919 0.05775452 C26.88417419 0.07837952 33.95854919 0.09900452 41.24729919 0.12025452 C41.24729919 14.97025452 41.24729919 29.82025452 41.24729919 45.12025452 C37.20151411 44.3110975 35.343241 43.82825009 31.99729919 41.87025452 C30.82747498 41.19736389 30.82747498 41.19736389 29.63401794 40.51087952 C28.84640076 40.05197327 28.05878357 39.59306702 27.24729919 39.12025452 C21.01002068 35.5810632 14.68580471 32.27902027 8.24729919 29.12025452 C8.24729919 28.46025452 8.24729919 27.80025452 8.24729919 27.12025452 C7.64917419 26.97587952 7.05104919 26.83150452 6.43479919 26.68275452 C4.68579515 26.23301062 2.96052897 25.69133111 1.24729919 25.12025452 C1.24729919 24.46025452 1.24729919 23.80025452 1.24729919 23.12025452 C-0.07270081 22.46025452 -1.39270081 21.80025452 -2.75270081 21.12025452 C-2.78158227 17.80777265 -2.7994588 14.49532284 -2.81520081 11.18275452 C-2.82357971 10.23722717 -2.83195862 9.29169983 -2.84059143 8.31752014 C-2.84381409 7.41839905 -2.84703674 6.51927795 -2.85035706 5.59291077 C-2.85559387 4.76025696 -2.86083069 3.92760315 -2.8662262 3.06971741 C-2.71985156 0.55616592 -2.52068777 0.17294685 0 0 Z " fill="#00ADEB" transform="translate(141.75270080566406,517.8797454833984)"/>
<path d="M0 0 C0 14.85 0 29.7 0 45 C-10.6115625 45.0309375 -10.6115625 45.0309375 -21.4375 45.0625 C-24.79119751 45.07615601 -24.79119751 45.07615601 -28.21264648 45.09008789 C-29.97379496 45.09300696 -31.73494411 45.09555554 -33.49609375 45.09765625 C-34.41942505 45.10277222 -35.34275635 45.10788818 -36.29406738 45.11315918 C-37.16696411 45.11328003 -38.03986084 45.11340088 -38.93920898 45.11352539 C-39.70087875 45.115746 -40.46254852 45.11796661 -41.24729919 45.12025452 C-43 45 -43 45 -44 44 C-44.3061105 40.7383399 -44.2783694 37.46176264 -44.3125 34.1875 C-44.35600586 32.81368164 -44.35600586 32.81368164 -44.40039062 31.41210938 C-44.46461744 24.62876947 -44.46461744 24.62876947 -42.109375 21.44140625 C-38.87690775 19.23255363 -36.97835145 18 -33 18 C-32.67 17.34 -32.34 16.68 -32 16 C-30.1217456 14.75263166 -28.19689128 13.57476942 -26.25 12.4375 C-25.20328125 11.81746094 -24.1565625 11.19742187 -23.078125 10.55859375 C-20.26769614 9.13554665 -18.05227668 8.57641916 -15 8 C-14.67 7.34 -14.34 6.68 -14 6 C-8.57692308 3 -8.57692308 3 -6 3 C-6 2.34 -6 1.68 -6 1 C-3 0 -3 0 0 0 Z " fill="#00ADEB" transform="translate(183,462)"/>
</svg>
