<svg xmlns="http://www.w3.org/2000/svg" width="402" height="394" fill="none"><g stroke-width="1.612" opacity=".6"><path stroke="#F3F4F6" d="M365.725 0v29.02m0 12.898v29.02m-36.276-34.663h29.02m14.511 0H402" opacity=".4"/><path stroke="#F3F4F6" d="M365.725 80.612v29.021m0 12.898v29.02m-36.276-34.663h29.02m14.511 0H402" opacity=".6"/><path stroke="#F3F4F6" d="M365.725 161.224v29.021m0 12.897v29.021M329.449 197.5h29.02m14.511 0H402"/><path stroke="#F3F4F6" d="M365.725 241.836v29.021m0 12.898v29.02m-36.276-34.663h29.02m14.511 0H402" opacity=".6"/><path stroke="#F3F4F6" d="M365.725 322.449v29.02m0 12.898v29.021m-36.276-34.664h29.02m14.511 0H402" opacity=".4"/><path stroke="#F3F4F6" d="M283.5 0v29.02m0 12.898v29.02m-36.275-34.662h29.02m14.51 0h29.021" opacity=".6"/><path stroke="#E5E7EB" d="M283.5 80.612v29.021m0 12.898v29.02m-36.275-34.663h29.02m14.51 0h29.021"/><path stroke="#F3F4F6" d="M283.5 161.225v29.02m0 12.898v29.02M247.225 197.5h29.02m14.51 0h29.021"/><path stroke="#E5E7EB" d="M283.5 241.837v29.02m0 12.898v29.02m-36.275-34.663h29.02m14.51 0h29.021"/><path stroke="#F3F4F6" d="M283.5 322.449v29.02m0 12.898v29.02m-36.275-34.663h29.02m14.51 0h29.021" opacity=".6"/><path stroke="#F3F4F6" d="M201.276 0v29.02m0 12.898v29.02M165 36.277h29.021m14.51 0h29.02m-36.275 44.335v29.021m0 12.898v29.02M165 116.888h29.021m14.51 0h29.02m-36.275 44.337v29.02m0 12.898v29.02M165 197.5h29.021m14.51 0h29.02m-36.275 44.337v29.02m0 12.898v29.02M165 278.112h29.021m14.51 0h29.02m-36.275 44.337v29.02m0 12.898v29.02M165 358.724h29.021m14.51 0h29.02"/><path stroke="#F3F4F6" d="M119.051 0v29.02m0 12.898v29.02M82.776 36.277h29.02m14.51 0h29.021" opacity=".6"/><path stroke="#E5E7EB" d="M119.051 80.612v29.021m0 12.898v29.02m-36.275-34.663h29.02m14.51 0h29.021"/><path stroke="#F3F4F6" d="M119.051 161.225v29.02m0 12.898v29.02M82.776 197.5h29.02m14.51 0h29.021"/><path stroke="#E5E7EB" d="M119.051 241.837v29.02m0 12.898v29.02m-36.275-34.663h29.02m14.51 0h29.021"/><path stroke="#F3F4F6" d="M119.051 322.449v29.02m0 12.898v29.02m-36.275-34.663h29.02m14.51 0h29.021" opacity=".6"/><path stroke="#F3F4F6" d="M36.827 0v29.02m0 12.898v29.02M.55 36.276h29.02m14.51 0h29.021" opacity=".4"/><path stroke="#F3F4F6" d="M36.827 80.612v29.021m0 12.898v29.02M.55 116.888h29.02m14.51 0h29.021" opacity=".6"/><path stroke="#E5E7EB" d="M36.827 161.224v29.021m0 12.897v29.021M.55 197.5h29.02m14.51 0h29.021"/><path stroke="#F3F4F6" d="M36.827 241.836v29.021m0 12.898v29.02M.55 278.112h29.02m14.51 0h29.021" opacity=".6"/><path stroke="#F3F4F6" d="M36.827 322.449v29.02m0 12.898v29.021M.55 358.724h29.02m14.51 0h29.021" opacity=".4"/></g></svg>